<?xml version="1.0" encoding="utf-8" standalone="no"?>
<!DOCTYPE svg PUBLIC "-//W3C//DTD SVG 1.1//EN"
  "http://www.w3.org/Graphics/SVG/1.1/DTD/svg11.dtd">
<svg xmlns:xlink="http://www.w3.org/1999/xlink" width="560.55pt" height="291.6pt" viewBox="0 0 560.55 291.6" xmlns="http://www.w3.org/2000/svg" version="1.1">
 <metadata>
  <rdf:RDF xmlns:dc="http://purl.org/dc/elements/1.1/" xmlns:cc="http://creativecommons.org/ns#" xmlns:rdf="http://www.w3.org/1999/02/22-rdf-syntax-ns#">
   <cc:Work>
    <dc:type rdf:resource="http://purl.org/dc/dcmitype/StillImage"/>
    <dc:date>2024-12-11T13:46:48.222679</dc:date>
    <dc:format>image/svg+xml</dc:format>
    <dc:creator>
     <cc:Agent>
      <dc:title>Matplotlib v3.7.1, https://matplotlib.org/</dc:title>
     </cc:Agent>
    </dc:creator>
   </cc:Work>
  </rdf:RDF>
 </metadata>
 <defs>
  <style type="text/css">*{stroke-linejoin: round; stroke-linecap: butt}</style>
 </defs>
 <g id="figure_1">
  <g id="patch_1">
   <path d="M 0 291.6 
L 560.55 291.6 
L 560.55 0 
L 0 0 
z
" style="fill: #ffffff"/>
  </g>
  <g id="patch_2">
   <path d="M 7.2 284.4 
L 284.4 284.4 
L 284.4 7.2 
L 7.2 7.2 
z
" style="fill: #ffffff"/>
  </g>
  <g id="pane3d_1">
   <g id="patch_3">
    <path d="M 28.130512 216.051364 
L 119.671005 139.320307 
L 118.398504 28.660407 
L 22.477327 98.659314 
" style="fill: #f2f2f2; opacity: 0.5; stroke: #f2f2f2; stroke-linejoin: miter"/>
   </g>
  </g>
  <g id="pane3d_2">
   <g id="patch_4">
    <path d="M 119.671005 139.320307 
L 266.560834 182.015381 
L 271.802814 67.543928 
L 118.398504 28.660407 
" style="fill: #e6e6e6; opacity: 0.5; stroke: #e6e6e6; stroke-linejoin: miter"/>
   </g>
  </g>
  <g id="pane3d_3">
   <g id="patch_5">
    <path d="M 28.130512 216.051364 
L 183.840905 266.906378 
L 266.560834 182.015381 
L 119.671005 139.320307 
" style="fill: #ececec; opacity: 0.5; stroke: #ececec; stroke-linejoin: miter"/>
   </g>
  </g>
  <g id="axis3d_1">
   <g id="line2d_1">
    <path d="M 28.130512 216.051364 
L 183.840905 266.906378 
" style="fill: none; stroke: #cccccc; stroke-width: 1.25; stroke-linecap: round"/>
   </g>
   <g id="text_1">
    <!-- PC 1 -->
    <g style="fill: #262626" transform="translate(67.639041 280.722124) scale(0.18 -0.18)">
     <defs>
      <path id="ArialMT-50" d="M 494 0 
L 494 4581 
L 2222 4581 
Q 2678 4581 2919 4538 
Q 3256 4481 3484 4323 
Q 3713 4166 3852 3881 
Q 3991 3597 3991 3256 
Q 3991 2672 3619 2267 
Q 3247 1863 2275 1863 
L 1100 1863 
L 1100 0 
L 494 0 
z
M 1100 2403 
L 2284 2403 
Q 2872 2403 3119 2622 
Q 3366 2841 3366 3238 
Q 3366 3525 3220 3729 
Q 3075 3934 2838 4000 
Q 2684 4041 2272 4041 
L 1100 4041 
L 1100 2403 
z
" transform="scale(0.015625)"/>
      <path id="ArialMT-43" d="M 3763 1606 
L 4369 1453 
Q 4178 706 3683 314 
Q 3188 -78 2472 -78 
Q 1731 -78 1267 223 
Q 803 525 561 1097 
Q 319 1669 319 2325 
Q 319 3041 592 3573 
Q 866 4106 1370 4382 
Q 1875 4659 2481 4659 
Q 3169 4659 3637 4309 
Q 4106 3959 4291 3325 
L 3694 3184 
Q 3534 3684 3231 3912 
Q 2928 4141 2469 4141 
Q 1941 4141 1586 3887 
Q 1231 3634 1087 3207 
Q 944 2781 944 2328 
Q 944 1744 1114 1308 
Q 1284 872 1643 656 
Q 2003 441 2422 441 
Q 2931 441 3284 734 
Q 3638 1028 3763 1606 
z
" transform="scale(0.015625)"/>
      <path id="ArialMT-20" transform="scale(0.015625)"/>
      <path id="ArialMT-31" d="M 2384 0 
L 1822 0 
L 1822 3584 
Q 1619 3391 1289 3197 
Q 959 3003 697 2906 
L 697 3450 
Q 1169 3672 1522 3987 
Q 1875 4303 2022 4600 
L 2384 4600 
L 2384 0 
z
" transform="scale(0.015625)"/>
     </defs>
     <use xlink:href="#ArialMT-50"/>
     <use xlink:href="#ArialMT-43" x="66.699219"/>
     <use xlink:href="#ArialMT-20" x="138.916016"/>
     <use xlink:href="#ArialMT-31" x="166.699219"/>
    </g>
   </g>
   <g id="Line3DCollection_1">
    <path d="M 31.087776 217.017206 
L 122.472856 140.134695 
L 121.318563 29.400557 
" style="fill: none; stroke: #cccccc"/>
    <path d="M 48.959897 222.854241 
L 139.395732 145.053507 
L 138.960394 33.872247 
" style="fill: none; stroke: #cccccc"/>
    <path d="M 67.05535 228.764216 
L 156.512585 150.0287 
L 156.813168 38.397405 
" style="fill: none; stroke: #cccccc"/>
    <path d="M 85.378348 234.748507 
L 173.826769 155.06125 
L 174.88069 42.976995 
" style="fill: none; stroke: #cccccc"/>
    <path d="M 103.93321 240.808525 
L 191.341717 160.152154 
L 193.16686 47.612006 
" style="fill: none; stroke: #cccccc"/>
    <path d="M 122.724365 246.945716 
L 209.06094 165.302432 
L 211.675669 52.30345 
" style="fill: none; stroke: #cccccc"/>
    <path d="M 141.756355 253.161564 
L 226.988034 170.513131 
L 230.41121 57.052363 
" style="fill: none; stroke: #cccccc"/>
    <path d="M 161.033841 259.457591 
L 245.126677 175.785318 
L 249.377675 61.859809 
" style="fill: none; stroke: #cccccc"/>
    <path d="M 180.561603 265.835358 
L 263.480638 181.12009 
L 268.579358 66.726876 
" style="fill: none; stroke: #cccccc"/>
   </g>
   <g id="xtick_1">
    <g id="line2d_2">
     <path d="M 149.545946 142.054054 
" clip-path="url(#p4966a3f204)" style="fill: none; stroke: #cccccc; stroke-linecap: round"/>
    </g>
    <g id="line2d_3">
     <path d="M 31.883407 216.347839 
L 29.493107 218.358805 
" style="fill: none; stroke: #262626; stroke-width: 1.25; stroke-linecap: round"/>
    </g>
    <g id="text_2">
     <!-- −40 -->
     <g style="fill: #262626" transform="translate(19.337442 230.972417) scale(0.1 -0.1)">
      <defs>
       <path id="ArialMT-2212" d="M 3381 1997 
L 356 1997 
L 356 2522 
L 3381 2522 
L 3381 1997 
z
" transform="scale(0.015625)"/>
       <path id="ArialMT-34" d="M 2069 0 
L 2069 1097 
L 81 1097 
L 81 1613 
L 2172 4581 
L 2631 4581 
L 2631 1613 
L 3250 1613 
L 3250 1097 
L 2631 1097 
L 2631 0 
L 2069 0 
z
M 2069 1613 
L 2069 3678 
L 634 1613 
L 2069 1613 
z
" transform="scale(0.015625)"/>
       <path id="ArialMT-30" d="M 266 2259 
Q 266 3072 433 3567 
Q 600 4063 929 4331 
Q 1259 4600 1759 4600 
Q 2128 4600 2406 4451 
Q 2684 4303 2865 4023 
Q 3047 3744 3150 3342 
Q 3253 2941 3253 2259 
Q 3253 1453 3087 958 
Q 2922 463 2592 192 
Q 2263 -78 1759 -78 
Q 1097 -78 719 397 
Q 266 969 266 2259 
z
M 844 2259 
Q 844 1131 1108 757 
Q 1372 384 1759 384 
Q 2147 384 2411 759 
Q 2675 1134 2675 2259 
Q 2675 3391 2411 3762 
Q 2147 4134 1753 4134 
Q 1366 4134 1134 3806 
Q 844 3388 844 2259 
z
" transform="scale(0.015625)"/>
      </defs>
      <use xlink:href="#ArialMT-2212"/>
      <use xlink:href="#ArialMT-34" x="58.398438"/>
      <use xlink:href="#ArialMT-30" x="114.013672"/>
     </g>
    </g>
   </g>
   <g id="xtick_2">
    <g id="line2d_4">
     <path d="M 149.545946 142.054054 
" clip-path="url(#p4966a3f204)" style="fill: none; stroke: #cccccc; stroke-linecap: round"/>
    </g>
    <g id="line2d_5">
     <path d="M 49.74766 222.176539 
L 47.380977 224.212564 
" style="fill: none; stroke: #262626; stroke-width: 1.25; stroke-linecap: round"/>
    </g>
    <g id="text_3">
     <!-- −30 -->
     <g style="fill: #262626" transform="translate(37.217012 236.860797) scale(0.1 -0.1)">
      <defs>
       <path id="ArialMT-33" d="M 269 1209 
L 831 1284 
Q 928 806 1161 595 
Q 1394 384 1728 384 
Q 2125 384 2398 659 
Q 2672 934 2672 1341 
Q 2672 1728 2419 1979 
Q 2166 2231 1775 2231 
Q 1616 2231 1378 2169 
L 1441 2663 
Q 1497 2656 1531 2656 
Q 1891 2656 2178 2843 
Q 2466 3031 2466 3422 
Q 2466 3731 2256 3934 
Q 2047 4138 1716 4138 
Q 1388 4138 1169 3931 
Q 950 3725 888 3313 
L 325 3413 
Q 428 3978 793 4289 
Q 1159 4600 1703 4600 
Q 2078 4600 2393 4439 
Q 2709 4278 2876 4000 
Q 3044 3722 3044 3409 
Q 3044 3113 2884 2869 
Q 2725 2625 2413 2481 
Q 2819 2388 3044 2092 
Q 3269 1797 3269 1353 
Q 3269 753 2831 336 
Q 2394 -81 1725 -81 
Q 1122 -81 723 278 
Q 325 638 269 1209 
z
" transform="scale(0.015625)"/>
      </defs>
      <use xlink:href="#ArialMT-2212"/>
      <use xlink:href="#ArialMT-33" x="58.398438"/>
      <use xlink:href="#ArialMT-30" x="114.013672"/>
     </g>
    </g>
   </g>
   <g id="xtick_3">
    <g id="line2d_6">
     <path d="M 149.545946 142.054054 
" clip-path="url(#p4966a3f204)" style="fill: none; stroke: #cccccc; stroke-linecap: round"/>
    </g>
    <g id="line2d_7">
     <path d="M 67.834986 228.078022 
L 65.492699 230.139578 
" style="fill: none; stroke: #262626; stroke-width: 1.25; stroke-linecap: round"/>
    </g>
    <g id="text_4">
     <!-- −20 -->
     <g style="fill: #262626" transform="translate(55.320356 242.822873) scale(0.1 -0.1)">
      <defs>
       <path id="ArialMT-32" d="M 3222 541 
L 3222 0 
L 194 0 
Q 188 203 259 391 
Q 375 700 629 1000 
Q 884 1300 1366 1694 
Q 2113 2306 2375 2664 
Q 2638 3022 2638 3341 
Q 2638 3675 2398 3904 
Q 2159 4134 1775 4134 
Q 1369 4134 1125 3890 
Q 881 3647 878 3216 
L 300 3275 
Q 359 3922 746 4261 
Q 1134 4600 1788 4600 
Q 2447 4600 2831 4234 
Q 3216 3869 3216 3328 
Q 3216 3053 3103 2787 
Q 2991 2522 2730 2228 
Q 2469 1934 1863 1422 
Q 1356 997 1212 845 
Q 1069 694 975 541 
L 3222 541 
z
" transform="scale(0.015625)"/>
      </defs>
      <use xlink:href="#ArialMT-2212"/>
      <use xlink:href="#ArialMT-32" x="58.398438"/>
      <use xlink:href="#ArialMT-30" x="114.013672"/>
     </g>
    </g>
   </g>
   <g id="xtick_4">
    <g id="line2d_8">
     <path d="M 149.545946 142.054054 
" clip-path="url(#p4966a3f204)" style="fill: none; stroke: #cccccc; stroke-linecap: round"/>
    </g>
    <g id="line2d_9">
     <path d="M 86.149589 234.05366 
L 83.832502 236.141231 
" style="fill: none; stroke: #262626; stroke-width: 1.25; stroke-linecap: round"/>
    </g>
    <g id="text_5">
     <!-- −10 -->
     <g style="fill: #262626" transform="translate(73.651703 248.860039) scale(0.1 -0.1)">
      <use xlink:href="#ArialMT-2212"/>
      <use xlink:href="#ArialMT-31" x="58.398438"/>
      <use xlink:href="#ArialMT-30" x="114.013672"/>
     </g>
    </g>
   </g>
   <g id="xtick_5">
    <g id="line2d_10">
     <path d="M 149.545946 142.054054 
" clip-path="url(#p4966a3f204)" style="fill: none; stroke: #cccccc; stroke-linecap: round"/>
    </g>
    <g id="line2d_11">
     <path d="M 104.695781 240.104861 
L 102.40472 242.218942 
" style="fill: none; stroke: #262626; stroke-width: 1.25; stroke-linecap: round"/>
    </g>
    <g id="text_6">
     <!-- 0 -->
     <g style="fill: #262626" transform="translate(97.916168 254.973722) scale(0.1 -0.1)">
      <use xlink:href="#ArialMT-30"/>
     </g>
    </g>
   </g>
   <g id="xtick_6">
    <g id="line2d_12">
     <path d="M 149.545946 142.054054 
" clip-path="url(#p4966a3f204)" style="fill: none; stroke: #cccccc; stroke-linecap: round"/>
    </g>
    <g id="line2d_13">
     <path d="M 123.477982 246.233066 
L 121.213801 248.374165 
" style="fill: none; stroke: #262626; stroke-width: 1.25; stroke-linecap: round"/>
    </g>
    <g id="text_7">
     <!-- 10 -->
     <g style="fill: #262626" transform="translate(113.936166 261.165386) scale(0.1 -0.1)">
      <use xlink:href="#ArialMT-31"/>
      <use xlink:href="#ArialMT-30" x="55.615234"/>
     </g>
    </g>
   </g>
   <g id="xtick_7">
    <g id="line2d_14">
     <path d="M 149.545946 142.054054 
" clip-path="url(#p4966a3f204)" style="fill: none; stroke: #cccccc; stroke-linecap: round"/>
    </g>
    <g id="line2d_15">
     <path d="M 142.500725 252.439754 
L 140.264305 254.608392 
" style="fill: none; stroke: #262626; stroke-width: 1.25; stroke-linecap: round"/>
    </g>
    <g id="text_8">
     <!-- 20 -->
     <g style="fill: #262626" transform="translate(132.977973 267.436532) scale(0.1 -0.1)">
      <use xlink:href="#ArialMT-32"/>
      <use xlink:href="#ArialMT-30" x="55.615234"/>
     </g>
    </g>
   </g>
   <g id="xtick_8">
    <g id="line2d_16">
     <path d="M 149.545946 142.054054 
" clip-path="url(#p4966a3f204)" style="fill: none; stroke: #cccccc; stroke-linecap: round"/>
    </g>
    <g id="line2d_17">
     <path d="M 161.768663 258.726444 
L 159.560909 260.923156 
" style="fill: none; stroke: #262626; stroke-width: 1.25; stroke-linecap: round"/>
    </g>
    <g id="text_9">
     <!-- 30 -->
     <g style="fill: #262626" transform="translate(152.265799 273.788701) scale(0.1 -0.1)">
      <use xlink:href="#ArialMT-33"/>
      <use xlink:href="#ArialMT-30" x="55.615234"/>
     </g>
    </g>
   </g>
   <g id="xtick_9">
    <g id="line2d_18">
     <path d="M 149.545946 142.054054 
" clip-path="url(#p4966a3f204)" style="fill: none; stroke: #cccccc; stroke-linecap: round"/>
    </g>
    <g id="line2d_19">
     <path d="M 181.286565 265.094691 
L 179.108414 267.320027 
" style="fill: none; stroke: #262626; stroke-width: 1.25; stroke-linecap: round"/>
    </g>
    <g id="text_10">
     <!-- 40 -->
     <g style="fill: #262626" transform="translate(171.804443 280.223473) scale(0.1 -0.1)">
      <use xlink:href="#ArialMT-34"/>
      <use xlink:href="#ArialMT-30" x="55.615234"/>
     </g>
    </g>
   </g>
  </g>
  <g id="axis3d_2">
   <g id="line2d_20">
    <path d="M 266.560834 182.015381 
L 183.840905 266.906378 
" style="fill: none; stroke: #cccccc; stroke-width: 1.25; stroke-linecap: round"/>
   </g>
   <g id="text_11">
    <!-- PC 2 -->
    <g style="fill: #262626" transform="translate(234.013454 255.223578) scale(0.18 -0.18)">
     <use xlink:href="#ArialMT-50"/>
     <use xlink:href="#ArialMT-43" x="66.699219"/>
     <use xlink:href="#ArialMT-20" x="138.916016"/>
     <use xlink:href="#ArialMT-32" x="166.699219"/>
    </g>
   </g>
   <g id="Line3DCollection_2">
    <path d="M 24.570498 97.131812 
L 30.120682 214.383163 
L 185.647093 265.052785 
" style="fill: none; stroke: #cccccc"/>
    <path d="M 44.275924 82.75169 
L 48.872597 198.664936 
L 202.648426 247.605235 
" style="fill: none; stroke: #cccccc"/>
    <path d="M 63.30226 68.867137 
L 67.006034 183.46513 
L 219.059761 230.763168 
" style="fill: none; stroke: #cccccc"/>
    <path d="M 81.684015 55.452969 
L 84.551095 168.758512 
L 234.911287 214.495602 
" style="fill: none; stroke: #cccccc"/>
    <path d="M 99.453399 42.485682 
L 101.535959 154.521462 
L 250.231168 198.773636 
" style="fill: none; stroke: #cccccc"/>
    <path d="M 116.640513 29.943309 
L 117.987035 140.731844 
L 265.045707 183.570274 
" style="fill: none; stroke: #cccccc"/>
   </g>
   <g id="xtick_10">
    <g id="line2d_21">
     <path d="M 149.545946 142.054054 
" clip-path="url(#p4966a3f204)" style="fill: none; stroke: #cccccc; stroke-linecap: round"/>
    </g>
    <g id="line2d_22">
     <path d="M 184.336196 264.625702 
L 188.272291 265.908059 
" style="fill: none; stroke: #262626; stroke-width: 1.25; stroke-linecap: round"/>
    </g>
    <g id="text_12">
     <!-- −20 -->
     <g style="fill: #262626" transform="translate(182.78606 278.069625) scale(0.1 -0.1)">
      <use xlink:href="#ArialMT-2212"/>
      <use xlink:href="#ArialMT-32" x="58.398438"/>
      <use xlink:href="#ArialMT-30" x="114.013672"/>
     </g>
    </g>
   </g>
   <g id="xtick_11">
    <g id="line2d_23">
     <path d="M 149.545946 142.054054 
" clip-path="url(#p4966a3f204)" style="fill: none; stroke: #cccccc; stroke-linecap: round"/>
    </g>
    <g id="line2d_24">
     <path d="M 201.353448 247.193099 
L 205.241685 248.430559 
" style="fill: none; stroke: #262626; stroke-width: 1.25; stroke-linecap: round"/>
    </g>
    <g id="text_13">
     <!-- −10 -->
     <g style="fill: #262626" transform="translate(199.692316 260.514292) scale(0.1 -0.1)">
      <use xlink:href="#ArialMT-2212"/>
      <use xlink:href="#ArialMT-31" x="58.398438"/>
      <use xlink:href="#ArialMT-30" x="114.013672"/>
     </g>
    </g>
   </g>
   <g id="xtick_12">
    <g id="line2d_25">
     <path d="M 149.545946 142.054054 
" clip-path="url(#p4966a3f204)" style="fill: none; stroke: #cccccc; stroke-linecap: round"/>
    </g>
    <g id="line2d_26">
     <path d="M 217.780396 230.365207 
L 221.621698 231.560087 
" style="fill: none; stroke: #262626; stroke-width: 1.25; stroke-linecap: round"/>
    </g>
    <g id="text_14">
     <!-- 0 -->
     <g style="fill: #262626" transform="translate(221.712514 243.56833) scale(0.1 -0.1)">
      <use xlink:href="#ArialMT-30"/>
     </g>
    </g>
   </g>
   <g id="xtick_13">
    <g id="line2d_27">
     <path d="M 149.545946 142.054054 
" clip-path="url(#p4966a3f204)" style="fill: none; stroke: #cccccc; stroke-linecap: round"/>
    </g>
    <g id="line2d_28">
     <path d="M 233.647233 214.111098 
L 237.442511 215.265559 
" style="fill: none; stroke: #262626; stroke-width: 1.25; stroke-linecap: round"/>
    </g>
    <g id="text_15">
     <!-- 10 -->
     <g style="fill: #262626" transform="translate(234.694656 227.200551) scale(0.1 -0.1)">
      <use xlink:href="#ArialMT-31"/>
      <use xlink:href="#ArialMT-30" x="55.615234"/>
     </g>
    </g>
   </g>
   <g id="xtick_14">
    <g id="line2d_29">
     <path d="M 149.545946 142.054054 
" clip-path="url(#p4966a3f204)" style="fill: none; stroke: #cccccc; stroke-linecap: round"/>
    </g>
    <g id="line2d_30">
     <path d="M 248.982124 198.401917 
L 252.73228 199.517975 
" style="fill: none; stroke: #262626; stroke-width: 1.25; stroke-linecap: round"/>
    </g>
    <g id="text_16">
     <!-- 20 -->
     <g style="fill: #262626" transform="translate(249.928479 211.381861) scale(0.1 -0.1)">
      <use xlink:href="#ArialMT-32"/>
      <use xlink:href="#ArialMT-30" x="55.615234"/>
     </g>
    </g>
   </g>
   <g id="xtick_15">
    <g id="line2d_31">
     <path d="M 149.545946 142.054054 
" clip-path="url(#p4966a3f204)" style="fill: none; stroke: #cccccc; stroke-linecap: round"/>
    </g>
    <g id="line2d_32">
     <path d="M 263.811381 183.210713 
L 267.517301 184.290253 
" style="fill: none; stroke: #262626; stroke-width: 1.25; stroke-linecap: round"/>
    </g>
    <g id="text_17">
     <!-- 30 -->
     <g style="fill: #262626" transform="translate(264.659684 196.085085) scale(0.1 -0.1)">
      <use xlink:href="#ArialMT-33"/>
      <use xlink:href="#ArialMT-30" x="55.615234"/>
     </g>
    </g>
   </g>
  </g>
  <g id="axis3d_3">
   <g id="line2d_33">
    <path d="M 266.560834 182.015381 
L 271.802814 67.543928 
" style="fill: none; stroke: #cccccc; stroke-width: 1.25; stroke-linecap: round"/>
   </g>
   <g id="text_18">
    <!-- PC 3 -->
    <g style="fill: #262626" transform="translate(289.502802 125.276092) scale(0.18 -0.18)">
     <use xlink:href="#ArialMT-50"/>
     <use xlink:href="#ArialMT-43" x="66.699219"/>
     <use xlink:href="#ArialMT-20" x="138.916016"/>
     <use xlink:href="#ArialMT-33" x="166.699219"/>
    </g>
   </g>
   <g id="Line3DCollection_3">
    <path d="M 266.661264 179.822235 
L 119.646574 137.195791 
L 28.022382 213.805978 
" style="fill: none; stroke: #cccccc"/>
    <path d="M 267.470958 162.1406 
L 119.449685 120.073755 
L 27.15036 195.697885 
" style="fill: none; stroke: #cccccc"/>
    <path d="M 268.291925 144.212774 
L 119.250185 102.724724 
L 26.265733 177.328036 
" style="fill: none; stroke: #cccccc"/>
    <path d="M 269.124403 126.033579 
L 119.048022 85.144153 
L 25.368226 158.690714 
" style="fill: none; stroke: #cccccc"/>
    <path d="M 269.968636 107.59769 
L 118.843143 67.327378 
L 24.457555 139.780034 
" style="fill: none; stroke: #cccccc"/>
    <path d="M 270.824874 88.899634 
L 118.635493 49.269605 
L 23.533428 120.589937 
" style="fill: none; stroke: #cccccc"/>
    <path d="M 271.693376 69.933777 
L 118.425016 30.965911 
L 22.595545 101.114186 
" style="fill: none; stroke: #cccccc"/>
   </g>
   <g id="xtick_16">
    <g id="line2d_34">
     <path d="M 149.545946 142.054054 
" style="fill: none; stroke: #cccccc; stroke-linecap: round"/>
    </g>
    <g id="line2d_35">
     <path d="M 265.427357 179.464467 
L 269.132017 180.538622 
" style="fill: none; stroke: #262626; stroke-width: 1.25; stroke-linecap: round"/>
    </g>
    <g id="text_19">
     <!-- −30 -->
     <g style="fill: #262626" transform="translate(266.134776 185.847237) scale(0.1 -0.1)">
      <use xlink:href="#ArialMT-2212"/>
      <use xlink:href="#ArialMT-33" x="58.398438"/>
      <use xlink:href="#ArialMT-30" x="114.013672"/>
     </g>
    </g>
   </g>
   <g id="xtick_17">
    <g id="line2d_36">
     <path d="M 149.545946 142.054054 
" style="fill: none; stroke: #cccccc; stroke-linecap: round"/>
    </g>
    <g id="line2d_37">
     <path d="M 266.2282 161.787415 
L 269.959453 162.847817 
" style="fill: none; stroke: #262626; stroke-width: 1.25; stroke-linecap: round"/>
    </g>
    <g id="text_20">
     <!-- −20 -->
     <g style="fill: #262626" transform="translate(266.998373 168.180118) scale(0.1 -0.1)">
      <use xlink:href="#ArialMT-2212"/>
      <use xlink:href="#ArialMT-32" x="58.398438"/>
      <use xlink:href="#ArialMT-30" x="114.013672"/>
     </g>
    </g>
   </g>
   <g id="xtick_18">
    <g id="line2d_38">
     <path d="M 149.545946 142.054054 
" style="fill: none; stroke: #cccccc; stroke-linecap: round"/>
    </g>
    <g id="line2d_39">
     <path d="M 267.040189 143.864334 
L 270.798419 144.910495 
" style="fill: none; stroke: #262626; stroke-width: 1.25; stroke-linecap: round"/>
    </g>
    <g id="text_21">
     <!-- −10 -->
     <g style="fill: #262626" transform="translate(267.87398 150.267324) scale(0.1 -0.1)">
      <use xlink:href="#ArialMT-2212"/>
      <use xlink:href="#ArialMT-31" x="58.398438"/>
      <use xlink:href="#ArialMT-30" x="114.013672"/>
     </g>
    </g>
   </g>
   <g id="xtick_19">
    <g id="line2d_40">
     <path d="M 149.545946 142.054054 
" style="fill: none; stroke: #cccccc; stroke-linecap: round"/>
    </g>
    <g id="line2d_41">
     <path d="M 267.863558 125.690052 
L 271.649158 126.721467 
" style="fill: none; stroke: #262626; stroke-width: 1.25; stroke-linecap: round"/>
    </g>
    <g id="text_22">
     <!-- 0 -->
     <g style="fill: #262626" transform="translate(274.462629 132.103692) scale(0.1 -0.1)">
      <use xlink:href="#ArialMT-30"/>
     </g>
    </g>
   </g>
   <g id="xtick_20">
    <g id="line2d_42">
     <path d="M 149.545946 142.054054 
" style="fill: none; stroke: #cccccc; stroke-linecap: round"/>
    </g>
    <g id="line2d_43">
     <path d="M 268.698549 107.259251 
L 272.511919 108.275397 
" style="fill: none; stroke: #262626; stroke-width: 1.25; stroke-linecap: round"/>
    </g>
    <g id="text_23">
     <!-- 10 -->
     <g style="fill: #262626" transform="translate(272.582548 113.683919) scale(0.1 -0.1)">
      <use xlink:href="#ArialMT-31"/>
      <use xlink:href="#ArialMT-30" x="55.615234"/>
     </g>
    </g>
   </g>
   <g id="xtick_21">
    <g id="line2d_44">
     <path d="M 149.545946 142.054054 
" style="fill: none; stroke: #cccccc; stroke-linecap: round"/>
    </g>
    <g id="line2d_45">
     <path d="M 269.545409 88.566462 
L 273.386959 89.566799 
" style="fill: none; stroke: #262626; stroke-width: 1.25; stroke-linecap: round"/>
    </g>
    <g id="text_24">
     <!-- 20 -->
     <g style="fill: #262626" transform="translate(273.495724 95.002546) scale(0.1 -0.1)">
      <use xlink:href="#ArialMT-32"/>
      <use xlink:href="#ArialMT-30" x="55.615234"/>
     </g>
    </g>
   </g>
   <g id="xtick_22">
    <g id="line2d_46">
     <path d="M 149.545946 142.054054 
" style="fill: none; stroke: #cccccc; stroke-linecap: round"/>
    </g>
    <g id="line2d_47">
     <path d="M 270.404393 69.606058 
L 274.274542 70.590028 
" style="fill: none; stroke: #262626; stroke-width: 1.25; stroke-linecap: round"/>
    </g>
    <g id="text_25">
     <!-- 30 -->
     <g style="fill: #262626" transform="translate(274.421962 76.053962) scale(0.1 -0.1)">
      <use xlink:href="#ArialMT-33"/>
      <use xlink:href="#ArialMT-30" x="55.615234"/>
     </g>
    </g>
   </g>
  </g>
  <g id="axes_1">
   <g id="Path3DCollection_1">
    <defs>
     <path id="C0_0_163ed9838f" d="M 0 2.236068 
C 0.593012 2.236068 1.161816 2.000462 1.581139 1.581139 
C 2.000462 1.161816 2.236068 0.593012 2.236068 -0 
C 2.236068 -0.593012 2.000462 -1.161816 1.581139 -1.581139 
C 1.161816 -2.000462 0.593012 -2.236068 0 -2.236068 
C -0.593012 -2.236068 -1.161816 -2.000462 -1.581139 -1.581139 
C -2.000462 -1.161816 -2.236068 -0.593012 -2.236068 0 
C -2.236068 0.593012 -2.000462 1.161816 -1.581139 1.581139 
C -1.161816 2.000462 -0.593012 2.236068 0 2.236068 
z
"/>
    </defs>
    <g clip-path="url(#p4966a3f204)">
     <use xlink:href="#C0_0_163ed9838f" x="171.319409" y="116.699242" style="fill: #ff0000; fill-opacity: 0.3; stroke: #ff0000; stroke-opacity: 0.3"/>
    </g>
    <g clip-path="url(#p4966a3f204)">
     <use xlink:href="#C0_0_163ed9838f" x="178.117649" y="115.564757" style="fill: #ff0000; fill-opacity: 0.317907; stroke: #ff0000; stroke-opacity: 0.317907"/>
    </g>
    <g clip-path="url(#p4966a3f204)">
     <use xlink:href="#C0_0_163ed9838f" x="171.797636" y="113.056391" style="fill: #ff0000; fill-opacity: 0.478451; stroke: #ff0000; stroke-opacity: 0.478451"/>
    </g>
    <g clip-path="url(#p4966a3f204)">
     <use xlink:href="#C0_0_163ed9838f" x="170.695657" y="116.015547" style="fill: #ff0000; fill-opacity: 0.503374; stroke: #ff0000; stroke-opacity: 0.503374"/>
    </g>
    <g clip-path="url(#p4966a3f204)">
     <use xlink:href="#C0_0_163ed9838f" x="167.838952" y="116.41358" style="fill: #ff0000; fill-opacity: 0.533409; stroke: #ff0000; stroke-opacity: 0.533409"/>
    </g>
    <g clip-path="url(#p4966a3f204)">
     <use xlink:href="#C0_0_163ed9838f" x="169.032522" y="116.03184" style="fill: #ff0000; fill-opacity: 0.591492; stroke: #ff0000; stroke-opacity: 0.591492"/>
    </g>
    <g clip-path="url(#p4966a3f204)">
     <use xlink:href="#C0_0_163ed9838f" x="173.177602" y="120.567925" style="fill: #ff0000; fill-opacity: 0.739452; stroke: #ff0000; stroke-opacity: 0.739452"/>
    </g>
    <g clip-path="url(#p4966a3f204)">
     <use xlink:href="#C0_0_163ed9838f" x="166.061375" y="112.877382" style="fill: #ff0000; fill-opacity: 0.915539; stroke: #ff0000; stroke-opacity: 0.915539"/>
    </g>
    <g clip-path="url(#p4966a3f204)">
     <use xlink:href="#C0_0_163ed9838f" x="159.165061" y="106.064656" style="fill: #ff0000; fill-opacity: 0.969039; stroke: #ff0000; stroke-opacity: 0.969039"/>
    </g>
    <g clip-path="url(#p4966a3f204)">
     <use xlink:href="#C0_0_163ed9838f" x="167.967091" y="136.83918" style="fill: #ff0000; stroke: #ff0000"/>
    </g>
   </g>
   <g id="Path3DCollection_2">
    <defs>
     <path id="C1_0_1bec42e801" d="M 0 2.236068 
C 0.593012 2.236068 1.161816 2.000462 1.581139 1.581139 
C 2.000462 1.161816 2.236068 0.593012 2.236068 -0 
C 2.236068 -0.593012 2.000462 -1.161816 1.581139 -1.581139 
C 1.161816 -2.000462 0.593012 -2.236068 0 -2.236068 
C -0.593012 -2.236068 -1.161816 -2.000462 -1.581139 -1.581139 
C -2.000462 -1.161816 -2.236068 -0.593012 -2.236068 0 
C -2.236068 0.593012 -2.000462 1.161816 -1.581139 1.581139 
C -1.161816 2.000462 -0.593012 2.236068 0 2.236068 
z
"/>
    </defs>
    <g clip-path="url(#p4966a3f204)">
     <use xlink:href="#C1_0_1bec42e801" x="108.249805" y="183.019903" style="fill: #0000ff; fill-opacity: 0.3; stroke: #0000ff; stroke-opacity: 0.3"/>
    </g>
    <g clip-path="url(#p4966a3f204)">
     <use xlink:href="#C1_0_1bec42e801" x="110.623626" y="184.086209" style="fill: #0000ff; fill-opacity: 0.454452; stroke: #0000ff; stroke-opacity: 0.454452"/>
    </g>
    <g clip-path="url(#p4966a3f204)">
     <use xlink:href="#C1_0_1bec42e801" x="109.294638" y="180.268043" style="fill: #0000ff; fill-opacity: 0.551034; stroke: #0000ff; stroke-opacity: 0.551034"/>
    </g>
    <g clip-path="url(#p4966a3f204)">
     <use xlink:href="#C1_0_1bec42e801" x="116.942396" y="188.687971" style="fill: #0000ff; fill-opacity: 0.585809; stroke: #0000ff; stroke-opacity: 0.585809"/>
    </g>
    <g clip-path="url(#p4966a3f204)">
     <use xlink:href="#C1_0_1bec42e801" x="112.730278" y="182.585224" style="fill: #0000ff; fill-opacity: 0.620182; stroke: #0000ff; stroke-opacity: 0.620182"/>
    </g>
    <g clip-path="url(#p4966a3f204)">
     <use xlink:href="#C1_0_1bec42e801" x="117.393672" y="182.209527" style="fill: #0000ff; fill-opacity: 0.674771; stroke: #0000ff; stroke-opacity: 0.674771"/>
    </g>
    <g clip-path="url(#p4966a3f204)">
     <use xlink:href="#C1_0_1bec42e801" x="113.613787" y="186.133217" style="fill: #0000ff; fill-opacity: 0.688026; stroke: #0000ff; stroke-opacity: 0.688026"/>
    </g>
    <g clip-path="url(#p4966a3f204)">
     <use xlink:href="#C1_0_1bec42e801" x="113.486252" y="179.199209" style="fill: #0000ff; fill-opacity: 0.710082; stroke: #0000ff; stroke-opacity: 0.710082"/>
    </g>
    <g clip-path="url(#p4966a3f204)">
     <use xlink:href="#C1_0_1bec42e801" x="114.394474" y="181.178399" style="fill: #0000ff; fill-opacity: 0.956351; stroke: #0000ff; stroke-opacity: 0.956351"/>
    </g>
    <g clip-path="url(#p4966a3f204)">
     <use xlink:href="#C1_0_1bec42e801" x="117.850257" y="180.296268" style="fill: #0000ff; stroke: #0000ff"/>
    </g>
   </g>
   <g id="Path3DCollection_3">
    <defs>
     <path id="C2_0_8a1163a1ce" d="M 0 2.236068 
C 0.593012 2.236068 1.161816 2.000462 1.581139 1.581139 
C 2.000462 1.161816 2.236068 0.593012 2.236068 -0 
C 2.236068 -0.593012 2.000462 -1.161816 1.581139 -1.581139 
C 1.161816 -2.000462 0.593012 -2.236068 0 -2.236068 
C -0.593012 -2.236068 -1.161816 -2.000462 -1.581139 -1.581139 
C -2.000462 -1.161816 -2.236068 -0.593012 -2.236068 0 
C -2.236068 0.593012 -2.000462 1.161816 -1.581139 1.581139 
C -1.161816 2.000462 -0.593012 2.236068 0 2.236068 
z
"/>
    </defs>
    <g clip-path="url(#p4966a3f204)">
     <use xlink:href="#C2_0_8a1163a1ce" x="91.471444" y="143.012942" style="fill: #008000; fill-opacity: 0.3; stroke: #008000; stroke-opacity: 0.3"/>
    </g>
    <g clip-path="url(#p4966a3f204)">
     <use xlink:href="#C2_0_8a1163a1ce" x="95.753878" y="137.550914" style="fill: #008000; fill-opacity: 0.614095; stroke: #008000; stroke-opacity: 0.614095"/>
    </g>
    <g clip-path="url(#p4966a3f204)">
     <use xlink:href="#C2_0_8a1163a1ce" x="78.278857" y="125.895862" style="fill: #008000; fill-opacity: 0.732912; stroke: #008000; stroke-opacity: 0.732912"/>
    </g>
    <g clip-path="url(#p4966a3f204)">
     <use xlink:href="#C2_0_8a1163a1ce" x="94.407192" y="137.755331" style="fill: #008000; fill-opacity: 0.733664; stroke: #008000; stroke-opacity: 0.733664"/>
    </g>
    <g clip-path="url(#p4966a3f204)">
     <use xlink:href="#C2_0_8a1163a1ce" x="86.446535" y="132.995113" style="fill: #008000; fill-opacity: 0.75853; stroke: #008000; stroke-opacity: 0.75853"/>
    </g>
    <g clip-path="url(#p4966a3f204)">
     <use xlink:href="#C2_0_8a1163a1ce" x="92.531029" y="146.866834" style="fill: #008000; fill-opacity: 0.820081; stroke: #008000; stroke-opacity: 0.820081"/>
    </g>
    <g clip-path="url(#p4966a3f204)">
     <use xlink:href="#C2_0_8a1163a1ce" x="82.616681" y="124.260511" style="fill: #008000; fill-opacity: 0.832884; stroke: #008000; stroke-opacity: 0.832884"/>
    </g>
    <g clip-path="url(#p4966a3f204)">
     <use xlink:href="#C2_0_8a1163a1ce" x="89.541786" y="136.151737" style="fill: #008000; fill-opacity: 0.937237; stroke: #008000; stroke-opacity: 0.937237"/>
    </g>
    <g clip-path="url(#p4966a3f204)">
     <use xlink:href="#C2_0_8a1163a1ce" x="76.931992" y="112.195645" style="fill: #008000; fill-opacity: 0.966734; stroke: #008000; stroke-opacity: 0.966734"/>
    </g>
    <g clip-path="url(#p4966a3f204)">
     <use xlink:href="#C2_0_8a1163a1ce" x="87.140364" y="139.95476" style="fill: #008000; stroke: #008000"/>
    </g>
   </g>
   <g id="Path3DCollection_4">
    <defs>
     <path id="C3_0_2e98fbadbb" d="M 0 2.236068 
C 0.593012 2.236068 1.161816 2.000462 1.581139 1.581139 
C 2.000462 1.161816 2.236068 0.593012 2.236068 -0 
C 2.236068 -0.593012 2.000462 -1.161816 1.581139 -1.581139 
C 1.161816 -2.000462 0.593012 -2.236068 0 -2.236068 
C -0.593012 -2.236068 -1.161816 -2.000462 -1.581139 -1.581139 
C -2.000462 -1.161816 -2.236068 -0.593012 -2.236068 0 
C -2.236068 0.593012 -2.000462 1.161816 -1.581139 1.581139 
C -1.161816 2.000462 -0.593012 2.236068 0 2.236068 
z
"/>
    </defs>
    <g clip-path="url(#p4966a3f204)">
     <use xlink:href="#C3_0_2e98fbadbb" x="192.003446" y="165.649532" style="fill-opacity: 0.3; stroke: #000000; stroke-opacity: 0.3"/>
    </g>
    <g clip-path="url(#p4966a3f204)">
     <use xlink:href="#C3_0_2e98fbadbb" x="191.795738" y="163.804341" style="fill-opacity: 0.468378; stroke: #000000; stroke-opacity: 0.468378"/>
    </g>
    <g clip-path="url(#p4966a3f204)">
     <use xlink:href="#C3_0_2e98fbadbb" x="194.184631" y="167.73712" style="fill-opacity: 0.50397; stroke: #000000; stroke-opacity: 0.50397"/>
    </g>
    <g clip-path="url(#p4966a3f204)">
     <use xlink:href="#C3_0_2e98fbadbb" x="191.256" y="168.463449" style="fill-opacity: 0.655808; stroke: #000000; stroke-opacity: 0.655808"/>
    </g>
    <g clip-path="url(#p4966a3f204)">
     <use xlink:href="#C3_0_2e98fbadbb" x="192.852821" y="166.336385" style="fill-opacity: 0.689992; stroke: #000000; stroke-opacity: 0.689992"/>
    </g>
    <g clip-path="url(#p4966a3f204)">
     <use xlink:href="#C3_0_2e98fbadbb" x="192.912442" y="165.587699" style="fill-opacity: 0.767466; stroke: #000000; stroke-opacity: 0.767466"/>
    </g>
    <g clip-path="url(#p4966a3f204)">
     <use xlink:href="#C3_0_2e98fbadbb" x="193.44545" y="167.680123" style="fill-opacity: 0.785413; stroke: #000000; stroke-opacity: 0.785413"/>
    </g>
    <g clip-path="url(#p4966a3f204)">
     <use xlink:href="#C3_0_2e98fbadbb" x="195.646221" y="166.702557" style="fill-opacity: 0.814547; stroke: #000000; stroke-opacity: 0.814547"/>
    </g>
    <g clip-path="url(#p4966a3f204)">
     <use xlink:href="#C3_0_2e98fbadbb" x="192.287758" y="166.214852" style="fill-opacity: 0.84572; stroke: #000000; stroke-opacity: 0.84572"/>
    </g>
    <g clip-path="url(#p4966a3f204)">
     <use xlink:href="#C3_0_2e98fbadbb" x="193.730159" y="166.156094" style="stroke: #000000"/>
    </g>
   </g>
   <g id="legend_1">
    <g id="patch_6">
     <path d="M 403.707891 184.435781 
L 550.05 184.435781 
Q 553.35 184.435781 553.35 181.135781 
L 553.35 88.05 
Q 553.35 84.75 550.05 84.75 
L 403.707891 84.75 
Q 400.407891 84.75 400.407891 88.05 
L 400.407891 181.135781 
Q 400.407891 184.435781 403.707891 184.435781 
z
" style="fill: #ffffff; opacity: 0.8; stroke: #cccccc; stroke-linejoin: miter"/>
    </g>
    <g id="Path3DCollection_5">
     <defs>
      <path id="m5de6a1ae8a" d="M 0 2.236068 
C 0.593012 2.236068 1.161816 2.000462 1.581139 1.581139 
C 2.000462 1.161816 2.236068 0.593012 2.236068 0 
C 2.236068 -0.593012 2.000462 -1.161816 1.581139 -1.581139 
C 1.161816 -2.000462 0.593012 -2.236068 0 -2.236068 
C -0.593012 -2.236068 -1.161816 -2.000462 -1.581139 -1.581139 
C -2.000462 -1.161816 -2.236068 -0.593012 -2.236068 0 
C -2.236068 0.593012 -2.000462 1.161816 -1.581139 1.581139 
C -1.161816 2.000462 -0.593012 2.236068 0 2.236068 
z
" style="stroke: #ff0000"/>
     </defs>
     <g>
      <use xlink:href="#m5de6a1ae8a" x="423.507891" y="98.829141" style="fill: #ff0000; stroke: #ff0000"/>
     </g>
    </g>
    <g id="text_26">
     <!-- Honey -->
     <g style="fill: #262626" transform="translate(453.207891 103.160391) scale(0.165 -0.165)">
      <defs>
       <path id="ArialMT-48" d="M 513 0 
L 513 4581 
L 1119 4581 
L 1119 2700 
L 3500 2700 
L 3500 4581 
L 4106 4581 
L 4106 0 
L 3500 0 
L 3500 2159 
L 1119 2159 
L 1119 0 
L 513 0 
z
" transform="scale(0.015625)"/>
       <path id="ArialMT-6f" d="M 213 1659 
Q 213 2581 725 3025 
Q 1153 3394 1769 3394 
Q 2453 3394 2887 2945 
Q 3322 2497 3322 1706 
Q 3322 1066 3130 698 
Q 2938 331 2570 128 
Q 2203 -75 1769 -75 
Q 1072 -75 642 372 
Q 213 819 213 1659 
z
M 791 1659 
Q 791 1022 1069 705 
Q 1347 388 1769 388 
Q 2188 388 2466 706 
Q 2744 1025 2744 1678 
Q 2744 2294 2464 2611 
Q 2184 2928 1769 2928 
Q 1347 2928 1069 2612 
Q 791 2297 791 1659 
z
" transform="scale(0.015625)"/>
       <path id="ArialMT-6e" d="M 422 0 
L 422 3319 
L 928 3319 
L 928 2847 
Q 1294 3394 1984 3394 
Q 2284 3394 2536 3286 
Q 2788 3178 2913 3003 
Q 3038 2828 3088 2588 
Q 3119 2431 3119 2041 
L 3119 0 
L 2556 0 
L 2556 2019 
Q 2556 2363 2490 2533 
Q 2425 2703 2258 2804 
Q 2091 2906 1866 2906 
Q 1506 2906 1245 2678 
Q 984 2450 984 1813 
L 984 0 
L 422 0 
z
" transform="scale(0.015625)"/>
       <path id="ArialMT-65" d="M 2694 1069 
L 3275 997 
Q 3138 488 2766 206 
Q 2394 -75 1816 -75 
Q 1088 -75 661 373 
Q 234 822 234 1631 
Q 234 2469 665 2931 
Q 1097 3394 1784 3394 
Q 2450 3394 2872 2941 
Q 3294 2488 3294 1666 
Q 3294 1616 3291 1516 
L 816 1516 
Q 847 969 1125 678 
Q 1403 388 1819 388 
Q 2128 388 2347 550 
Q 2566 713 2694 1069 
z
M 847 1978 
L 2700 1978 
Q 2663 2397 2488 2606 
Q 2219 2931 1791 2931 
Q 1403 2931 1139 2672 
Q 875 2413 847 1978 
z
" transform="scale(0.015625)"/>
       <path id="ArialMT-79" d="M 397 -1278 
L 334 -750 
Q 519 -800 656 -800 
Q 844 -800 956 -737 
Q 1069 -675 1141 -563 
Q 1194 -478 1313 -144 
Q 1328 -97 1363 -6 
L 103 3319 
L 709 3319 
L 1400 1397 
Q 1534 1031 1641 628 
Q 1738 1016 1872 1384 
L 2581 3319 
L 3144 3319 
L 1881 -56 
Q 1678 -603 1566 -809 
Q 1416 -1088 1222 -1217 
Q 1028 -1347 759 -1347 
Q 597 -1347 397 -1278 
z
" transform="scale(0.015625)"/>
      </defs>
      <use xlink:href="#ArialMT-48"/>
      <use xlink:href="#ArialMT-6f" x="72.216797"/>
      <use xlink:href="#ArialMT-6e" x="127.832031"/>
      <use xlink:href="#ArialMT-65" x="183.447266"/>
      <use xlink:href="#ArialMT-79" x="239.0625"/>
     </g>
    </g>
    <g id="Path3DCollection_6">
     <defs>
      <path id="m8db54f733a" d="M 0 2.236068 
C 0.593012 2.236068 1.161816 2.000462 1.581139 1.581139 
C 2.000462 1.161816 2.236068 0.593012 2.236068 0 
C 2.236068 -0.593012 2.000462 -1.161816 1.581139 -1.581139 
C 1.161816 -2.000462 0.593012 -2.236068 0 -2.236068 
C -0.593012 -2.236068 -1.161816 -2.000462 -1.581139 -1.581139 
C -2.000462 -1.161816 -2.236068 -0.593012 -2.236068 0 
C -2.236068 0.593012 -2.000462 1.161816 -1.581139 1.581139 
C -1.161816 2.000462 -0.593012 2.236068 0 2.236068 
z
" style="stroke: #008000"/>
     </defs>
     <g>
      <use xlink:href="#m8db54f733a" x="423.507891" y="122.563359" style="fill: #008000; stroke: #008000"/>
     </g>
    </g>
    <g id="text_27">
     <!-- Maple Syrup -->
     <g style="fill: #262626" transform="translate(453.207891 126.894609) scale(0.165 -0.165)">
      <defs>
       <path id="ArialMT-4d" d="M 475 0 
L 475 4581 
L 1388 4581 
L 2472 1338 
Q 2622 884 2691 659 
Q 2769 909 2934 1394 
L 4031 4581 
L 4847 4581 
L 4847 0 
L 4263 0 
L 4263 3834 
L 2931 0 
L 2384 0 
L 1059 3900 
L 1059 0 
L 475 0 
z
" transform="scale(0.015625)"/>
       <path id="ArialMT-61" d="M 2588 409 
Q 2275 144 1986 34 
Q 1697 -75 1366 -75 
Q 819 -75 525 192 
Q 231 459 231 875 
Q 231 1119 342 1320 
Q 453 1522 633 1644 
Q 813 1766 1038 1828 
Q 1203 1872 1538 1913 
Q 2219 1994 2541 2106 
Q 2544 2222 2544 2253 
Q 2544 2597 2384 2738 
Q 2169 2928 1744 2928 
Q 1347 2928 1158 2789 
Q 969 2650 878 2297 
L 328 2372 
Q 403 2725 575 2942 
Q 747 3159 1072 3276 
Q 1397 3394 1825 3394 
Q 2250 3394 2515 3294 
Q 2781 3194 2906 3042 
Q 3031 2891 3081 2659 
Q 3109 2516 3109 2141 
L 3109 1391 
Q 3109 606 3145 398 
Q 3181 191 3288 0 
L 2700 0 
Q 2613 175 2588 409 
z
M 2541 1666 
Q 2234 1541 1622 1453 
Q 1275 1403 1131 1340 
Q 988 1278 909 1158 
Q 831 1038 831 891 
Q 831 666 1001 516 
Q 1172 366 1500 366 
Q 1825 366 2078 508 
Q 2331 650 2450 897 
Q 2541 1088 2541 1459 
L 2541 1666 
z
" transform="scale(0.015625)"/>
       <path id="ArialMT-70" d="M 422 -1272 
L 422 3319 
L 934 3319 
L 934 2888 
Q 1116 3141 1344 3267 
Q 1572 3394 1897 3394 
Q 2322 3394 2647 3175 
Q 2972 2956 3137 2557 
Q 3303 2159 3303 1684 
Q 3303 1175 3120 767 
Q 2938 359 2589 142 
Q 2241 -75 1856 -75 
Q 1575 -75 1351 44 
Q 1128 163 984 344 
L 984 -1272 
L 422 -1272 
z
M 931 1641 
Q 931 1000 1190 694 
Q 1450 388 1819 388 
Q 2194 388 2461 705 
Q 2728 1022 2728 1688 
Q 2728 2322 2467 2637 
Q 2206 2953 1844 2953 
Q 1484 2953 1207 2617 
Q 931 2281 931 1641 
z
" transform="scale(0.015625)"/>
       <path id="ArialMT-6c" d="M 409 0 
L 409 4581 
L 972 4581 
L 972 0 
L 409 0 
z
" transform="scale(0.015625)"/>
       <path id="ArialMT-53" d="M 288 1472 
L 859 1522 
Q 900 1178 1048 958 
Q 1197 738 1509 602 
Q 1822 466 2213 466 
Q 2559 466 2825 569 
Q 3091 672 3220 851 
Q 3350 1031 3350 1244 
Q 3350 1459 3225 1620 
Q 3100 1781 2813 1891 
Q 2628 1963 1997 2114 
Q 1366 2266 1113 2400 
Q 784 2572 623 2826 
Q 463 3081 463 3397 
Q 463 3744 659 4045 
Q 856 4347 1234 4503 
Q 1613 4659 2075 4659 
Q 2584 4659 2973 4495 
Q 3363 4331 3572 4012 
Q 3781 3694 3797 3291 
L 3216 3247 
Q 3169 3681 2898 3903 
Q 2628 4125 2100 4125 
Q 1550 4125 1298 3923 
Q 1047 3722 1047 3438 
Q 1047 3191 1225 3031 
Q 1400 2872 2139 2705 
Q 2878 2538 3153 2413 
Q 3553 2228 3743 1945 
Q 3934 1663 3934 1294 
Q 3934 928 3725 604 
Q 3516 281 3123 101 
Q 2731 -78 2241 -78 
Q 1619 -78 1198 103 
Q 778 284 539 648 
Q 300 1013 288 1472 
z
" transform="scale(0.015625)"/>
       <path id="ArialMT-72" d="M 416 0 
L 416 3319 
L 922 3319 
L 922 2816 
Q 1116 3169 1280 3281 
Q 1444 3394 1641 3394 
Q 1925 3394 2219 3213 
L 2025 2691 
Q 1819 2813 1613 2813 
Q 1428 2813 1281 2702 
Q 1134 2591 1072 2394 
Q 978 2094 978 1738 
L 978 0 
L 416 0 
z
" transform="scale(0.015625)"/>
       <path id="ArialMT-75" d="M 2597 0 
L 2597 488 
Q 2209 -75 1544 -75 
Q 1250 -75 995 37 
Q 741 150 617 320 
Q 494 491 444 738 
Q 409 903 409 1263 
L 409 3319 
L 972 3319 
L 972 1478 
Q 972 1038 1006 884 
Q 1059 663 1231 536 
Q 1403 409 1656 409 
Q 1909 409 2131 539 
Q 2353 669 2445 892 
Q 2538 1116 2538 1541 
L 2538 3319 
L 3100 3319 
L 3100 0 
L 2597 0 
z
" transform="scale(0.015625)"/>
      </defs>
      <use xlink:href="#ArialMT-4d"/>
      <use xlink:href="#ArialMT-61" x="83.300781"/>
      <use xlink:href="#ArialMT-70" x="138.916016"/>
      <use xlink:href="#ArialMT-6c" x="194.53125"/>
      <use xlink:href="#ArialMT-65" x="216.748047"/>
      <use xlink:href="#ArialMT-20" x="272.363281"/>
      <use xlink:href="#ArialMT-53" x="300.146484"/>
      <use xlink:href="#ArialMT-79" x="366.845703"/>
      <use xlink:href="#ArialMT-72" x="416.845703"/>
      <use xlink:href="#ArialMT-75" x="450.146484"/>
      <use xlink:href="#ArialMT-70" x="505.761719"/>
     </g>
    </g>
    <g id="Path3DCollection_7">
     <defs>
      <path id="m8bdc92b89a" d="M 0 2.236068 
C 0.593012 2.236068 1.161816 2.000462 1.581139 1.581139 
C 2.000462 1.161816 2.236068 0.593012 2.236068 0 
C 2.236068 -0.593012 2.000462 -1.161816 1.581139 -1.581139 
C 1.161816 -2.000462 0.593012 -2.236068 0 -2.236068 
C -0.593012 -2.236068 -1.161816 -2.000462 -1.581139 -1.581139 
C -2.000462 -1.161816 -2.236068 -0.593012 -2.236068 0 
C -2.236068 0.593012 -2.000462 1.161816 -1.581139 1.581139 
C -1.161816 2.000462 -0.593012 2.236068 0 2.236068 
z
" style="stroke: #0000ff"/>
     </defs>
     <g>
      <use xlink:href="#m8bdc92b89a" x="423.507891" y="146.297578" style="fill: #0000ff; stroke: #0000ff"/>
     </g>
    </g>
    <g id="text_28">
     <!-- Sweet Syrup -->
     <g style="fill: #262626" transform="translate(453.207891 150.628828) scale(0.165 -0.165)">
      <defs>
       <path id="ArialMT-77" d="M 1034 0 
L 19 3319 
L 600 3319 
L 1128 1403 
L 1325 691 
Q 1338 744 1497 1375 
L 2025 3319 
L 2603 3319 
L 3100 1394 
L 3266 759 
L 3456 1400 
L 4025 3319 
L 4572 3319 
L 3534 0 
L 2950 0 
L 2422 1988 
L 2294 2553 
L 1622 0 
L 1034 0 
z
" transform="scale(0.015625)"/>
       <path id="ArialMT-74" d="M 1650 503 
L 1731 6 
Q 1494 -44 1306 -44 
Q 1000 -44 831 53 
Q 663 150 594 308 
Q 525 466 525 972 
L 525 2881 
L 113 2881 
L 113 3319 
L 525 3319 
L 525 4141 
L 1084 4478 
L 1084 3319 
L 1650 3319 
L 1650 2881 
L 1084 2881 
L 1084 941 
Q 1084 700 1114 631 
Q 1144 563 1211 522 
Q 1278 481 1403 481 
Q 1497 481 1650 503 
z
" transform="scale(0.015625)"/>
      </defs>
      <use xlink:href="#ArialMT-53"/>
      <use xlink:href="#ArialMT-77" x="66.699219"/>
      <use xlink:href="#ArialMT-65" x="138.916016"/>
      <use xlink:href="#ArialMT-65" x="194.53125"/>
      <use xlink:href="#ArialMT-74" x="250.146484"/>
      <use xlink:href="#ArialMT-20" x="277.929688"/>
      <use xlink:href="#ArialMT-53" x="305.712891"/>
      <use xlink:href="#ArialMT-79" x="372.412109"/>
      <use xlink:href="#ArialMT-72" x="422.412109"/>
      <use xlink:href="#ArialMT-75" x="455.712891"/>
      <use xlink:href="#ArialMT-70" x="511.328125"/>
     </g>
    </g>
    <g id="Path3DCollection_8">
     <defs>
      <path id="m8b77196e34" d="M 0 2.236068 
C 0.593012 2.236068 1.161816 2.000462 1.581139 1.581139 
C 2.000462 1.161816 2.236068 0.593012 2.236068 0 
C 2.236068 -0.593012 2.000462 -1.161816 1.581139 -1.581139 
C 1.161816 -2.000462 0.593012 -2.236068 0 -2.236068 
C -0.593012 -2.236068 -1.161816 -2.000462 -1.581139 -1.581139 
C -2.000462 -1.161816 -2.236068 -0.593012 -2.236068 0 
C -2.236068 0.593012 -2.000462 1.161816 -1.581139 1.581139 
C -1.161816 2.000462 -0.593012 2.236068 0 2.236068 
z
" style="stroke: #000000"/>
     </defs>
     <g>
      <use xlink:href="#m8b77196e34" x="423.507891" y="170.031797" style="stroke: #000000"/>
     </g>
    </g>
    <g id="text_29">
     <!-- Sugar Syrup -->
     <g style="fill: #262626" transform="translate(453.207891 174.363047) scale(0.165 -0.165)">
      <defs>
       <path id="ArialMT-67" d="M 319 -275 
L 866 -356 
Q 900 -609 1056 -725 
Q 1266 -881 1628 -881 
Q 2019 -881 2231 -725 
Q 2444 -569 2519 -288 
Q 2563 -116 2559 434 
Q 2191 0 1641 0 
Q 956 0 581 494 
Q 206 988 206 1678 
Q 206 2153 378 2554 
Q 550 2956 876 3175 
Q 1203 3394 1644 3394 
Q 2231 3394 2613 2919 
L 2613 3319 
L 3131 3319 
L 3131 450 
Q 3131 -325 2973 -648 
Q 2816 -972 2473 -1159 
Q 2131 -1347 1631 -1347 
Q 1038 -1347 672 -1080 
Q 306 -813 319 -275 
z
M 784 1719 
Q 784 1066 1043 766 
Q 1303 466 1694 466 
Q 2081 466 2343 764 
Q 2606 1063 2606 1700 
Q 2606 2309 2336 2618 
Q 2066 2928 1684 2928 
Q 1309 2928 1046 2623 
Q 784 2319 784 1719 
z
" transform="scale(0.015625)"/>
      </defs>
      <use xlink:href="#ArialMT-53"/>
      <use xlink:href="#ArialMT-75" x="66.699219"/>
      <use xlink:href="#ArialMT-67" x="122.314453"/>
      <use xlink:href="#ArialMT-61" x="177.929688"/>
      <use xlink:href="#ArialMT-72" x="233.544922"/>
      <use xlink:href="#ArialMT-20" x="266.845703"/>
      <use xlink:href="#ArialMT-53" x="294.628906"/>
      <use xlink:href="#ArialMT-79" x="361.328125"/>
      <use xlink:href="#ArialMT-72" x="411.328125"/>
      <use xlink:href="#ArialMT-75" x="444.628906"/>
      <use xlink:href="#ArialMT-70" x="500.244141"/>
     </g>
    </g>
   </g>
  </g>
 </g>
 <defs>
  <clipPath id="p4966a3f204">
   <rect x="7.2" y="7.2" width="277.2" height="277.2"/>
  </clipPath>
 </defs>
</svg>
